<svg class="w-8 h-8" width="36" height="35" viewBox="0 0 36 35" fill="none" xmlns="http://www.w3.org/2000/svg" data-config-id="auto-svg-3-3" data-path="0.0.0.0.2.0.0">
    <g clip-path="url(#clip0)" data-path="0.0.0.0.2.0.0.0">
        <path d="M32.25 35H5.25C3.183 35 1.5 33.3638 1.5 31.3542V3.64588C1.5 3.24338 1.836 2.91672 2.25 2.91672C2.664 2.91672 3 3.24338 3 3.64588V31.3542C3 32.5603 4.0095 33.5417 5.25 33.5417H31.5V6.56255C31.5 6.16005 31.836 5.83338 32.25 5.83338C32.664 5.83338 33 6.16005 33 6.56255V34.2709C33 34.6734 32.664 35 32.25 35Z" fill="white" data-path="0.0.0.0.2.0.0.0.0"></path>
        <path d="M32.25 7.29167H5.25C3.183 7.29167 1.5 5.65542 1.5 3.64583C1.5 1.63625 3.183 0 5.25 0H29.25C29.664 0 30 0.326667 30 0.729167V5.83333H32.25C32.664 5.83333 33 6.16 33 6.5625C33 6.965 32.664 7.29167 32.25 7.29167ZM5.25 1.45833C4.0095 1.45833 3 2.43979 3 3.64583C3 4.85187 4.0095 5.83333 5.25 5.83333H28.5V1.45833H5.25Z" fill="white" data-path="0.0.0.0.2.0.0.0.1"></path>
        <path d="M12.9868 27.7055C12.2338 27.7055 11.6158 27.4897 11.1718 27.0566C10.2898 26.1991 10.2808 24.6838 11.1478 22.7866C11.9158 21.1051 13.3018 19.2443 15.0478 17.5482C16.7938 15.8507 18.7063 14.5047 20.4358 13.7565C22.3858 12.9122 23.9443 12.9209 24.8278 13.7799C25.7098 14.6374 25.7188 16.154 24.8518 18.0499C24.0838 19.7313 22.6978 21.5922 20.9518 23.2882C19.2058 24.9857 17.2933 26.3318 15.5638 27.0799C14.5963 27.4955 13.7263 27.7055 12.9868 27.7055ZM23.0143 14.582C22.5043 14.582 21.8188 14.754 21.0448 15.088C19.4803 15.7647 17.7268 17.0043 16.1068 18.5778C14.4868 20.1513 13.2148 21.8561 12.5188 23.3772C11.9488 24.627 11.8378 25.6405 12.2323 26.024C12.6268 26.4076 13.6693 26.2997 14.9548 25.7455C16.5193 25.0688 18.2728 23.8293 19.8928 22.2557C21.5128 20.6822 22.7863 18.9774 23.4823 17.4549C24.0523 16.2051 24.1633 15.1916 23.7688 14.808C23.6113 14.6563 23.3503 14.582 23.0143 14.582Z" fill="white" data-path="0.0.0.0.2.0.0.0.2"></path>
        <path d="M23.0128 27.7054C22.2733 27.7054 21.4033 27.4969 20.4358 27.0784C18.7063 26.3317 16.7923 24.9842 15.0478 23.2867C13.3018 21.5892 11.9173 19.7298 11.1478 18.0484C10.2808 16.1525 10.2898 14.6359 11.1718 13.7784C12.0523 12.9209 13.6138 12.9121 15.5638 13.755C17.2933 14.5017 19.2073 15.8492 20.9518 17.5467C22.6978 19.2442 24.0823 21.1036 24.8518 22.785C25.7188 24.6823 25.7098 26.1975 24.8278 27.055C24.3838 27.4882 23.7658 27.7054 23.0128 27.7054ZM12.9853 14.5819C12.6478 14.5819 12.3898 14.6563 12.2323 14.8094C11.8378 15.1929 11.9488 16.2065 12.5188 17.4563C13.2148 18.9773 14.4898 20.6821 16.1083 22.2571C17.7268 23.8321 19.4803 25.0702 21.0463 25.7469C22.3318 26.3025 23.3743 26.4075 23.7688 26.0254C24.1633 25.6419 24.0523 24.6284 23.4823 23.3786C22.7863 21.8575 21.5113 20.1527 19.8928 18.5777C18.2743 17.0027 16.5208 15.7646 14.9548 15.0879C14.1808 14.754 13.4953 14.5819 12.9853 14.5819ZM11.7013 14.2932H11.7163H11.7013Z" fill="white" data-path="0.0.0.0.2.0.0.0.3"></path>
    </g>
</svg>