<svg class="w-8 h-8" width="35" height="35" viewBox="0 0 35 35" fill="none" xmlns="http://www.w3.org/2000/svg" data-config-id="auto-svg-1-3" data-path="0.0.0.0.0.0.0">
    <g clip-path="url(#clip0)" data-path="0.0.0.0.0.0.0.0">
        <path d="M22.6042 34.9999H2.1875C0.981458 34.9999 0 34.0185 0 32.8124V12.3958C0 11.1897 0.981458 10.2083 2.1875 10.2083H22.6042C23.8102 10.2083 24.7917 11.1897 24.7917 12.3958V32.8124C24.7917 34.0185 23.8102 34.9999 22.6042 34.9999ZM2.1875 11.6666C1.78646 11.6666 1.45833 11.9933 1.45833 12.3958V32.8124C1.45833 33.2149 1.78646 33.5416 2.1875 33.5416H22.6042C23.0052 33.5416 23.3333 33.2149 23.3333 32.8124V12.3958C23.3333 11.9933 23.0052 11.6666 22.6042 11.6666H2.1875Z" fill="white" data-path="0.0.0.0.0.0.0.0.0"></path>
        <path d="M34.2702 5.83333C33.8677 5.83333 33.541 5.50667 33.541 5.10417V3.64583C33.541 2.43979 32.5596 1.45833 31.3535 1.45833H29.8952C29.4927 1.45833 29.166 1.13167 29.166 0.729167C29.166 0.326667 29.4927 0 29.8952 0H31.3535C33.3646 0 34.9993 1.63625 34.9993 3.64583V5.10417C34.9993 5.50667 34.6727 5.83333 34.2702 5.83333Z" fill="white" data-path="0.0.0.0.0.0.0.0.1"></path>
        <path d="M6.56217 5.83333C6.15967 5.83333 5.83301 5.50667 5.83301 5.10417V3.64583C5.83301 1.63625 7.4678 0 9.47884 0H10.9372C11.3397 0 11.6663 0.326667 11.6663 0.729167C11.6663 1.13167 11.3397 1.45833 10.9372 1.45833H9.47884C8.2728 1.45833 7.29134 2.43979 7.29134 3.64583V5.10417C7.29134 5.50667 6.96467 5.83333 6.56217 5.83333Z" fill="white" data-path="0.0.0.0.0.0.0.0.2"></path>
        <path d="M24.0618 1.45833H16.7702C16.3677 1.45833 16.041 1.13167 16.041 0.729167C16.041 0.326667 16.3677 0 16.7702 0H24.0618C24.4643 0 24.791 0.326667 24.791 0.729167C24.791 1.13167 24.4643 1.45833 24.0618 1.45833Z" fill="white" data-path="0.0.0.0.0.0.0.0.3"></path>
        <path d="M31.3535 29.1666H29.8952C29.4927 29.1666 29.166 28.8399 29.166 28.4374C29.166 28.0349 29.4927 27.7083 29.8952 27.7083H31.3535C32.5596 27.7083 33.541 26.7268 33.541 25.5208V24.0624C33.541 23.6599 33.8677 23.3333 34.2702 23.3333C34.6727 23.3333 34.9993 23.6599 34.9993 24.0624V25.5208C34.9993 27.5303 33.3646 29.1666 31.3535 29.1666Z" fill="white" data-path="0.0.0.0.0.0.0.0.4"></path>
        <path d="M34.2702 18.9583C33.8677 18.9583 33.541 18.6316 33.541 18.2291V10.9374C33.541 10.5349 33.8677 10.2083 34.2702 10.2083C34.6727 10.2083 34.9994 10.5349 34.9994 10.9374V18.2291C34.9994 18.6316 34.6727 18.9583 34.2702 18.9583Z" fill="white" data-path="0.0.0.0.0.0.0.0.5"></path>
    </g>
</svg>