<svg class="w-8 h-8" width="35" height="35" viewBox="0 0 35 35" fill="none" xmlns="http://www.w3.org/2000/svg" data-config-id="auto-svg-2-3" data-path="0.0.0.0.1.0.0">
    <g clip-path="url(#clip0)" data-path="0.0.0.0.1.0.0.0">
        <path d="M24.0625 18.9583C23.7402 18.9583 23.431 18.8927 23.1467 18.7615L17.5 16.1175L11.8592 18.7585C11.569 18.8927 11.2598 18.9583 10.9375 18.9583C9.73146 18.9583 8.75 17.9769 8.75 16.7708C8.75 16.4529 8.81417 16.1583 8.94833 15.8681L15.5079 1.28917C15.8419 0.510417 16.6265 0 17.5 0C18.3735 0 19.1581 0.510417 19.4965 1.30083L26.0546 15.874C26.1858 16.1583 26.25 16.4529 26.25 16.7708C26.25 17.9769 25.2685 18.9583 24.0625 18.9583ZM17.5 14.5833C17.605 14.5833 17.7115 14.6067 17.8092 14.6519L23.7592 17.4373C24.166 17.6225 24.7917 17.2856 24.7917 16.7708C24.7917 16.6629 24.7712 16.5754 24.7275 16.4763L18.1621 1.88854C17.9346 1.35771 17.061 1.36792 16.8423 1.87833L10.2754 16.4719C10.2287 16.5754 10.2083 16.6629 10.2083 16.7708C10.2083 17.2856 10.8092 17.6327 11.2467 17.4358L17.1908 14.6533C17.2885 14.6067 17.395 14.5833 17.5 14.5833Z" fill="white" data-path="0.0.0.0.1.0.0.0.0"></path>
        <path d="M17.4997 35C8.65488 35 1.45801 27.8031 1.45801 18.9583C1.45801 12.9194 4.7903 7.46227 10.154 4.71769C10.507 4.53685 10.9518 4.6754 11.1355 5.0356C11.3193 5.3929 11.1763 5.83331 10.8176 6.0156C5.94384 8.50936 2.91634 13.4691 2.91634 18.9583C2.91634 26.9996 9.45842 33.5417 17.4997 33.5417C25.5409 33.5417 32.083 26.9996 32.083 18.9583C32.083 13.4794 29.0613 8.51956 24.1963 6.0156C23.8376 5.83185 23.6961 5.39144 23.8813 5.03414C24.0665 4.67539 24.507 4.53539 24.8628 4.7206C30.2163 7.47394 33.5413 12.931 33.5413 18.9583C33.5413 27.8031 26.3445 35 17.4997 35Z" fill="white" data-path="0.0.0.0.1.0.0.0.1"></path>
    </g>
</svg>