<svg version="1.1" id="Layer_1" xmlns="http://www.w3.org/2000/svg" xmlns:xlink="http://www.w3.org/1999/xlink" x="0px" y="0px" viewBox="0 0 1326 778" style="enable-background:new 0 0 1326 778;" xml:space="preserve">
    <style type="text/css">.st0{fill:#E6E7E8;}</style>
    <path class="st0" d="M1042.14,268.52c12.71-4.74,27.17-21.04,30.46-38.93c3.38-18.4-4.9-38.35-27.37-38.93 c-19.38-0.81-28.35,15.31-28.35,27.7c0,20.52,16.13,31.92,27.7,30.29C1042.95,261.35,1042.14,268.52,1042.14,268.52z"/>
    <path class="st0" d="M978.93,268.52c12.71-4.74,27.17-21.04,30.46-38.93c3.38-18.4-4.9-38.35-27.37-38.93 c-19.38-0.81-28.35,15.31-28.35,27.7c0,20.52,16.13,31.92,27.7,30.29C979.75,261.35,978.93,268.52,978.93,268.52z"/>
</svg>
