<svg version="1.1" id="Layer_1" xmlns="http://www.w3.org/2000/svg" xmlns:xlink="http://www.w3.org/1999/xlink" x="0px" y="0px" viewBox="0 0 109.81 25.2" style="enable-background:new 0 0 109.81 25.2;" xml:space="preserve">
    <style type="text/css">
        .st0{fill:#EDD000;stroke:#A7A9AC;stroke-width:0.25;stroke-miterlimit:10;}
        .st1{fill:#E6E7E8;stroke:#A7A9AC;stroke-width:0.25;stroke-miterlimit:10;}
    </style>
    <polygon class="st0" points="10.44,3.7 13.18,9.26 19.32,10.15 14.88,14.48 15.93,20.59 10.44,17.71 4.95,20.59 6,14.48 1.56,10.15 7.7,9.26 "/>
    <polygon class="st0" points="32.59,3.7 35.34,9.26 41.48,10.15 37.04,14.48 38.08,20.59 32.59,17.71 27.1,20.59 28.15,14.48 23.71,10.15 29.85,9.26 "/>
    <polygon class="st0" points="54.42,3.7 57.17,9.26 63.3,10.15 58.86,14.48 59.91,20.59 54.42,17.71 48.93,20.59 49.98,14.48 45.54,10.15 51.68,9.26 "/>
    <polygon class="st0" points="76.68,3.7 79.43,9.26 85.57,10.15 81.13,14.48 82.17,20.59 76.68,17.71 71.19,20.59 72.24,14.48 67.8,10.15 73.94,9.26 "/>
    <polygon class="st1" points="98.62,3.7 101.37,9.26 107.5,10.15 103.06,14.48 104.11,20.59 98.62,17.71 93.13,20.59 94.18,14.48 89.74,10.15 95.88,9.26 "/>
</svg>
