<?xml version="1.0" encoding="utf-8"?>
<!-- Generator: Adobe Illustrator 26.0.3, SVG Export Plug-In . SVG Version: 6.00 Build 0)  -->
<svg version="1.1" id="Layer_1" xmlns="http://www.w3.org/2000/svg" xmlns:xlink="http://www.w3.org/1999/xlink" x="0px" y="0px"
	 viewBox="0 0 402.23 320.38" style="enable-background:new 0 0 402.23 320.38;" xml:space="preserve">
<style type="text/css">
	.st0{fill:#1ED760;}
	.st1{fill:#ffffff;}
</style>
<path class="st0" d="M202.34,20.27L202.34,20.27c-46.25,0-83.74,37.49-83.74,83.74c0,46.25,37.49,83.74,83.74,83.74
	c46.25,0,83.74-37.49,83.74-83.74C286.09,57.76,248.6,20.27,202.34,20.27z M240.75,141.05c-1.5,2.46-4.72,3.24-7.18,1.73
	c-19.66-12.01-44.41-14.73-73.56-8.07c-2.81,0.64-5.61-1.12-6.25-3.93c-0.64-2.81,1.11-5.61,3.93-6.25
	c31.9-7.29,59.26-4.15,81.34,9.34C241.48,135.38,242.26,138.59,240.75,141.05z M251,118.25L251,118.25
	c-1.89,3.07-5.91,4.04-8.98,2.15c-22.51-13.84-56.82-17.84-83.45-9.76c-3.45,1.04-7.1-0.9-8.15-4.35c-1.04-3.45,0.91-7.09,4.35-8.14
	c30.41-9.23,68.22-4.76,94.07,11.13C251.92,111.16,252.89,115.18,251,118.25z M251.88,94.5L251.88,94.5
	c-26.99-16.03-71.52-17.5-97.29-9.68c-4.14,1.26-8.51-1.08-9.77-5.22c-1.25-4.14,1.08-8.51,5.22-9.77
	c29.58-8.98,78.76-7.24,109.83,11.2c3.73,2.21,4.95,7.02,2.74,10.73C260.41,95.48,255.59,96.71,251.88,94.5z"/>
<path class="st1" d="M53.3,241.77c-14.46-3.45-17.03-5.87-17.03-10.95c0-4.8,4.52-8.04,11.25-8.04c6.52,0,12.98,2.46,19.76,7.51
	c0.2,0.15,0.46,0.21,0.71,0.17c0.26-0.04,0.48-0.18,0.63-0.39l7.06-9.95c0.29-0.41,0.21-0.97-0.18-1.29
	c-8.07-6.47-17.15-9.62-27.77-9.62c-15.61,0-26.52,9.37-26.52,22.77c0,14.38,9.41,19.46,25.67,23.39
	c13.83,3.19,16.17,5.86,16.17,10.63c0,5.29-4.72,8.58-12.32,8.58c-8.44,0-15.33-2.85-23.03-9.51c-0.19-0.17-0.45-0.24-0.69-0.23
	c-0.26,0.02-0.49,0.14-0.65,0.33l-7.92,9.42c-0.33,0.4-0.29,0.98,0.09,1.32c8.96,8,19.98,12.22,31.88,12.22
	c16.82,0,27.69-9.19,27.69-23.42c0.03-12.01-7.16-18.66-24.77-22.94C53.33,241.78,53.3,241.77,53.3,241.77z"/>
<path class="st1" d="M116.17,227.51l-0.01,0c-7.29,0-13.27,2.87-18.21,8.76v-6.62c0-0.52-0.42-0.95-0.94-0.95H84.06
	c-0.52,0-0.94,0.43-0.94,0.95v73.6c0,0.52,0.42,0.95,0.94,0.95h12.95c0.52,0,0.94-0.43,0.94-0.95v-23.23
	c4.94,5.53,10.92,8.24,18.21,8.24c13.55,0,27.27-10.43,27.27-30.37C143.45,237.94,129.73,227.51,116.17,227.51z M128.37,257.89
	c0,10.15-6.25,17.24-15.21,17.24c-8.85,0-15.53-7.41-15.53-17.24c0-9.83,6.68-17.24,15.53-17.24
	C121.97,240.65,128.37,247.9,128.37,257.89L128.37,257.89z"/>
<path class="st1" d="M178.58,227.51L178.58,227.51c-17.45,0-31.12,13.43-31.12,30.59c0,16.97,13.58,30.26,30.91,30.26
	c17.51,0,31.22-13.39,31.22-30.48C209.59,240.86,195.97,227.51,178.58,227.51z M178.58,275.23c-9.28,0-16.28-7.46-16.28-17.34
	c0-9.93,6.76-17.13,16.07-17.13c9.34,0,16.38,7.46,16.38,17.35C194.75,268.03,187.95,275.23,178.58,275.23z"/>
<path class="st1" d="M246.85,228.7H232.6v-14.57c0-0.52-0.42-0.95-0.94-0.95h-12.95c-0.52,0-0.95,0.43-0.95,0.95v14.57h-6.22
	c-0.52,0-0.94,0.43-0.94,0.95v11.13c0,0.52,0.42,0.95,0.94,0.95h6.22v28.79c0,11.63,5.79,17.53,17.22,17.53
	c4.64,0,8.49-0.96,12.12-3.02c0.3-0.16,0.48-0.48,0.48-0.82v-10.6c0-0.32-0.17-0.63-0.45-0.8c-0.28-0.18-0.63-0.19-0.92-0.04
	c-2.49,1.25-4.9,1.83-7.6,1.83c-4.15,0-6.01-1.89-6.01-6.11v-26.76h14.25c0.52,0,0.94-0.43,0.94-0.95v-11.13
	C247.81,229.13,247.39,228.7,246.85,228.7L246.85,228.7L246.85,228.7z"/>
<path class="st1" d="M296.49,228.75v-1.79c0-5.26,2.02-7.61,6.54-7.61c2.7,0,4.87,0.54,7.3,1.35c0.3,0.09,0.61,0.05,0.85-0.13
	c0.25-0.18,0.39-0.47,0.39-0.77v-10.91c0-0.42-0.26-0.79-0.67-0.91c-2.56-0.76-5.84-1.55-10.76-1.55
	c-11.95,0-18.28,6.73-18.28,19.47v2.74h-6.22c-0.52,0-0.95,0.43-0.95,0.95v11.18c0,0.52,0.43,0.95,0.95,0.95h6.22v44.41
	c0,0.53,0.43,0.95,0.95,0.95h12.94c0.53,0,0.95-0.42,0.95-0.95v-44.4h12.09l18.52,44.4c-2.1,4.66-4.17,5.59-6.99,5.59
	c-2.28,0-4.69-0.68-7.14-2.03c-0.23-0.12-0.51-0.14-0.75-0.07c-0.25,0.09-0.46,0.27-0.56,0.51l-4.39,9.63
	c-0.21,0.46-0.03,0.99,0.41,1.23c4.58,2.48,8.71,3.54,13.82,3.54c9.56,0,14.85-4.46,19.5-16.44l22.46-58.04
	c0.12-0.29,0.08-0.62-0.1-0.88c-0.17-0.26-0.46-0.41-0.77-0.41h-13.48c-0.41,0-0.77,0.26-0.9,0.64l-13.81,39.43l-15.12-39.46
	c-0.14-0.37-0.49-0.61-0.88-0.61L296.49,228.75L296.49,228.75L296.49,228.75z"/>
<path class="st1" d="M267.71,228.7h-12.95c-0.52,0-0.95,0.43-0.95,0.95v56.48c0,0.53,0.43,0.95,0.95,0.95h12.95
	c0.52,0,0.95-0.42,0.95-0.95v-56.48C268.66,229.13,268.24,228.7,267.71,228.7C267.71,228.7,267.71,228.7,267.71,228.7z"/>
<path class="st1" d="M261.31,202.98c-5.13,0-9.29,4.15-9.29,9.28c0,5.13,4.16,9.29,9.29,9.29s9.28-4.16,9.28-9.29
	C270.59,207.13,266.43,202.98,261.31,202.98z"/>
<path class="st1" d="M374.78,228.59c-5.12,0-9.16,4.16-9.16,9.16c0,5,3.99,9.11,9.11,9.11c5.12,0,9.16-4.17,9.16-9.16
	C383.89,232.7,379.9,228.59,374.78,228.59z M374.73,245.95c-4.64,0-8.15-3.66-8.15-8.2c0-4.54,3.53-8.25,8.2-8.25
	c4.64,0,8.15,3.66,8.15,8.2C382.93,242.24,379.4,245.95,374.73,245.95z"/>
<path class="st1" d="M376.8,238.63h0.01c1.31-0.38,2.22-1.34,2.21-2.9c0-1.91-1.46-3.05-3.69-3.05h-4.26v9.56h1.82v-3.31h1.99
	l2.32,3.31h2.18L376.8,238.63z M375.26,237.34h-2.37v-3.03h2.37c1.18,0,1.89,0.53,1.89,1.51
	C377.15,236.76,376.44,237.34,375.26,237.34z"/>
</svg>
