<svg width="151" height="34" viewBox="0 0 151 34" fill="none" xmlns="http://www.w3.org/2000/svg">
<path d="M47.222 26V23.452L55.594 10.582H47.3V7.8H59.442V10.348L51.018 23.218H59.494V26H47.222ZM68.0846 26.312C66.8366 26.312 65.7099 26.026 64.7046 25.454C63.7166 24.882 62.9279 24.0933 62.3386 23.088C61.7666 22.0653 61.4806 20.8867 61.4806 19.552C61.4806 18.2173 61.7752 17.0473 62.3646 16.042C62.9539 15.0193 63.7426 14.222 64.7306 13.65C65.7359 13.078 66.8626 12.792 68.1106 12.792C69.3412 12.792 70.4506 13.078 71.4386 13.65C72.4439 14.222 73.2326 15.0193 73.8046 16.042C74.3939 17.0473 74.6886 18.2173 74.6886 19.552C74.6886 20.8867 74.3939 22.0653 73.8046 23.088C73.2326 24.0933 72.4439 24.882 71.4386 25.454C70.4332 26.026 69.3152 26.312 68.0846 26.312ZM68.0846 23.426C68.9512 23.426 69.7052 23.1053 70.3466 22.464C70.9879 21.8053 71.3086 20.8347 71.3086 19.552C71.3086 18.2693 70.9879 17.3073 70.3466 16.666C69.7052 16.0073 68.9599 15.678 68.1106 15.678C67.2266 15.678 66.4639 16.0073 65.8226 16.666C65.1986 17.3073 64.8866 18.2693 64.8866 19.552C64.8866 20.8347 65.1986 21.8053 65.8226 22.464C66.4639 23.1053 67.2179 23.426 68.0846 23.426ZM82.4741 26.312C81.3301 26.312 80.3248 26.13 79.4581 25.766C78.5915 25.3847 77.8981 24.8647 77.3781 24.206C76.8581 23.5473 76.5461 22.7847 76.4421 21.918H79.7961C79.9001 22.4207 80.1775 22.854 80.6281 23.218C81.0961 23.5647 81.6941 23.738 82.4221 23.738C83.1501 23.738 83.6788 23.5907 84.0081 23.296C84.3548 23.0013 84.5281 22.6633 84.5281 22.282C84.5281 21.7273 84.2855 21.3547 83.8001 21.164C83.3148 20.956 82.6388 20.7567 81.7721 20.566C81.2175 20.4447 80.6541 20.2973 80.0821 20.124C79.5101 19.9507 78.9815 19.734 78.4961 19.474C78.0281 19.1967 77.6468 18.85 77.3521 18.434C77.0575 18.0007 76.9101 17.472 76.9101 16.848C76.9101 15.704 77.3608 14.742 78.2621 13.962C79.1808 13.182 80.4635 12.792 82.1101 12.792C83.6355 12.792 84.8488 13.1473 85.7501 13.858C86.6688 14.5687 87.2148 15.548 87.3881 16.796H84.2421C84.0515 15.8427 83.3321 15.366 82.0841 15.366C81.4601 15.366 80.9748 15.4873 80.6281 15.73C80.2988 15.9727 80.1341 16.276 80.1341 16.64C80.1341 17.0213 80.3855 17.3247 80.8881 17.55C81.3908 17.7753 82.0581 17.9833 82.8901 18.174C83.7915 18.382 84.6148 18.616 85.3601 18.876C86.1228 19.1187 86.7295 19.4913 87.1801 19.994C87.6308 20.4793 87.8561 21.1813 87.8561 22.1C87.8735 22.8973 87.6655 23.6167 87.2321 24.258C86.7988 24.8993 86.1748 25.402 85.3601 25.766C84.5455 26.13 83.5835 26.312 82.4741 26.312ZM90.2843 31.72V13.104H93.2483L93.6123 14.95C94.0283 14.378 94.5743 13.8753 95.2503 13.442C95.9436 13.0087 96.8363 12.792 97.9283 12.792C99.1416 12.792 100.225 13.0867 101.178 13.676C102.132 14.2653 102.886 15.0713 103.44 16.094C103.995 17.1167 104.272 18.278 104.272 19.578C104.272 20.878 103.995 22.0393 103.44 23.062C102.886 24.0673 102.132 24.8647 101.178 25.454C100.225 26.026 99.1416 26.312 97.9283 26.312C96.9576 26.312 96.1083 26.13 95.3803 25.766C94.6523 25.402 94.063 24.8907 93.6123 24.232V31.72H90.2843ZM97.2263 23.4C98.2836 23.4 99.159 23.0447 99.8523 22.334C100.546 21.6233 100.892 20.7047 100.892 19.578C100.892 18.4513 100.546 17.524 99.8523 16.796C99.159 16.068 98.2836 15.704 97.2263 15.704C96.1516 15.704 95.2676 16.068 94.5743 16.796C93.8983 17.5067 93.5603 18.4253 93.5603 19.552C93.5603 20.6787 93.8983 21.606 94.5743 22.334C95.2676 23.0447 96.1516 23.4 97.2263 23.4ZM111.171 26.312C110.062 26.312 109.152 26.1387 108.441 25.792C107.731 25.428 107.202 24.9513 106.855 24.362C106.509 23.7727 106.335 23.1227 106.335 22.412C106.335 21.216 106.803 20.2453 107.739 19.5C108.675 18.7547 110.079 18.382 111.951 18.382H115.227V18.07C115.227 17.186 114.976 16.536 114.473 16.12C113.971 15.704 113.347 15.496 112.601 15.496C111.925 15.496 111.336 15.6607 110.833 15.99C110.331 16.302 110.019 16.77 109.897 17.394H106.647C106.734 16.458 107.046 15.6433 107.583 14.95C108.138 14.2567 108.849 13.728 109.715 13.364C110.582 12.9827 111.553 12.792 112.627 12.792C114.465 12.792 115.912 13.2513 116.969 14.17C118.027 15.0887 118.555 16.3887 118.555 18.07V26H115.721L115.409 23.92C115.028 24.6133 114.491 25.1853 113.797 25.636C113.121 26.0867 112.246 26.312 111.171 26.312ZM111.925 23.712C112.879 23.712 113.615 23.4 114.135 22.776C114.673 22.152 115.011 21.3807 115.149 20.462H112.315C111.431 20.462 110.799 20.6267 110.417 20.956C110.036 21.268 109.845 21.658 109.845 22.126C109.845 22.6287 110.036 23.0187 110.417 23.296C110.799 23.5733 111.301 23.712 111.925 23.712ZM127.529 26.312C126.212 26.312 125.05 26.026 124.045 25.454C123.04 24.882 122.242 24.0847 121.653 23.062C121.081 22.0393 120.795 20.8693 120.795 19.552C120.795 18.2347 121.081 17.0647 121.653 16.042C122.242 15.0193 123.04 14.222 124.045 13.65C125.05 13.078 126.212 12.792 127.529 12.792C129.176 12.792 130.562 13.2253 131.689 14.092C132.816 14.9413 133.535 16.12 133.847 17.628H130.337C130.164 17.004 129.817 16.5187 129.297 16.172C128.794 15.808 128.196 15.626 127.503 15.626C126.584 15.626 125.804 15.9727 125.163 16.666C124.522 17.3593 124.201 18.3213 124.201 19.552C124.201 20.7827 124.522 21.7447 125.163 22.438C125.804 23.1313 126.584 23.478 127.503 23.478C128.196 23.478 128.794 23.3047 129.297 22.958C129.817 22.6113 130.164 22.1173 130.337 21.476H133.847C133.535 22.932 132.816 24.102 131.689 24.986C130.562 25.87 129.176 26.312 127.529 26.312ZM142.547 26.312C141.247 26.312 140.094 26.0347 139.089 25.48C138.084 24.9253 137.295 24.1453 136.723 23.14C136.151 22.1347 135.865 20.9733 135.865 19.656C135.865 18.3213 136.142 17.134 136.697 16.094C137.269 15.054 138.049 14.248 139.037 13.676C140.042 13.0867 141.221 12.792 142.573 12.792C143.838 12.792 144.956 13.0693 145.927 13.624C146.898 14.1787 147.652 14.9413 148.189 15.912C148.744 16.8653 149.021 17.9313 149.021 19.11C149.021 19.3007 149.012 19.5 148.995 19.708C148.995 19.916 148.986 20.1327 148.969 20.358H139.167C139.236 21.3633 139.583 22.152 140.207 22.724C140.848 23.296 141.62 23.582 142.521 23.582C143.197 23.582 143.76 23.4347 144.211 23.14C144.679 22.828 145.026 22.4293 145.251 21.944H148.631C148.388 22.7587 147.981 23.504 147.409 24.18C146.854 24.8387 146.161 25.3587 145.329 25.74C144.514 26.1213 143.587 26.312 142.547 26.312ZM142.573 15.496C141.758 15.496 141.039 15.73 140.415 16.198C139.791 16.6487 139.392 17.342 139.219 18.278H145.641C145.589 17.4287 145.277 16.7527 144.705 16.25C144.133 15.7473 143.422 15.496 142.573 15.496Z" fill="white"/>
<path d="M15 2C23.2994 2.0869 30 8.76954 30 17C30 25.2305 23.2994 31.9131 15 32L25.7282 17L15 2Z" fill="#8F69FF"/>
<path d="M14.8411 2.00123C21.5704 2.10506 27 8.78047 27 17C27 25.2195 21.5704 31.8949 14.8412 31.9988C14.7879 31.9994 14.7348 32 14.6816 32C6.57335 32 0 25.2841 0 17C0 8.7159 6.57335 2 14.6816 2C14.7348 2 14.7879 2.00059 14.8411 2.00123ZM22.0372 17C22.0372 12.8495 18.7441 9.48488 14.6816 9.48488C10.6192 9.48488 7.32601 12.8495 7.32601 17C7.32601 21.1505 10.6192 24.5151 14.6816 24.5151C18.744 24.5151 22.0372 21.1505 22.0372 17Z" fill="#3957FF"/>
</svg>
